<?xml version="1.0" encoding="UTF-8"?>
<!DOCTYPE svg PUBLIC "-//W3C//DTD SVG 1.1//EN" "http://www.w3.org/Graphics/SVG/1.1/DTD/svg11.dtd">
<svg version="1.1" xmlns="http://www.w3.org/2000/svg" xmlns:xlink="http://www.w3.org/1999/xlink" x="0px" y="0px" width="128" height="128" viewBox="0, 0, 128, 128">
  <g id="Background">
    <rect x="0" y="0" width="128" height="128" fill="#000000" fill-opacity="0"/>
  </g>
  <g id="Background"/>
  <g id="Background">
    <path d="M18.095,6 L109.907,6 C116.561,6 122,11.439 122,18.093 L122,109.907 C122,116.561 116.561,122 109.907,122 L18.095,122 C11.439,122 6,116.561 6,109.907 L6,18.093 C6,11.439 11.439,6 18.095,6" fill="#727272"/>
    <path d="M106.317,100.645 L30.357,122 L18.095,122 L17.565,121.99 L105.377,97.302 z M18.095,6 L29.255,6 L109.272,27.437 L108.378,30.798 L16.701,6.237 L16.741,6.077 C17.184,6.032 17.637,6 18.095,6 z M6,102.394 L6,98.855 L63.389,87.123 L64.082,90.52 z M6,86.191 L6,82.665 L32.809,77.81 L33.421,81.226 z M6,44.193 L6,40.668 L26.566,44.39 L25.954,47.805 z M6,28.053 L6,24.455 L58.252,38.991 L57.328,42.334 z" fill="#EBECEC"/>
    <path d="M26.598,75.613 C24.976,75.792 23.3,75.979 21.592,76.166 C19.82,76.359 18.003,76.559 16.121,76.77 C15.454,79.249 14.655,82.222 13.965,84.766 C11.267,85.218 8.7,85.744 6,86.195 L6,72.244 L9.171,63.301 C11.687,56.196 14.194,49.154 16.522,42.585 C19.88,43.147 23.208,43.81 26.625,44.38 C28.46,50.839 30.302,57.232 32.015,63.288 C33.676,69.178 35.311,75.06 36.896,80.619 C34.028,81.084 31.224,81.674 28.361,82.159 C27.793,80.076 27.168,77.733 26.598,75.613 z M21.488,56.273 C20.935,58.611 20.373,60.968 19.802,63.356 C19.474,64.694 19.143,66.046 18.812,67.408 C20.688,67.338 22.514,67.283 24.278,67.219 C23.953,65.84 23.624,64.461 23.287,63.069 C22.793,60.836 22.287,58.571 21.789,56.291 C21.684,56.281 21.587,56.278 21.488,56.273" fill="#84D0F4"/>
    <path d="M73.394,64.296 C74.161,65.284 74.806,66.352 75.321,67.498 C75.866,68.722 76.272,70.006 76.513,71.331 C76.725,72.471 76.874,73.631 76.911,74.796 C76.989,77.171 76.747,79.563 76.08,81.848 C75.916,82.405 75.734,82.953 75.527,83.491 L33.434,83.491 L33.416,63.273 L33.411,56.908 L75.706,56.908 C75.682,57.396 75.642,57.884 75.592,58.374 C75.473,59.539 75.194,60.679 74.773,61.775 C74.432,62.676 73.966,63.525 73.394,64.296 z M55.683,73.22 C55.698,74.116 55.712,75.01 55.725,75.901 C56.703,75.851 57.726,75.787 58.84,75.71 C59.096,75.336 59.068,74.769 59.064,74.335 C59.059,74.019 59.078,73.554 58.867,73.29 C58.753,73.235 58.543,73.275 58.424,73.275 C57.507,73.262 56.597,73.238 55.683,73.22" fill="#727272"/>
    <path d="M62.648,74.258 C62.616,72.914 62.26,71.832 61.595,70.997 C60.923,70.161 59.89,69.723 58.488,69.695 C56.41,69.658 54.269,69.608 52.044,69.563 C52.099,72.914 52.145,76.28 52.195,79.678 C54.433,79.546 56.602,79.426 58.69,79.309 C60.104,79.231 61.119,78.697 61.754,77.76 C62.384,76.824 62.681,75.66 62.648,74.258 z M61.498,54.884 C61.475,53.628 61.092,52.582 60.365,51.743 C59.639,50.889 58.695,50.359 57.538,50.152 C55.661,49.824 53.729,49.482 51.738,49.126 C51.785,51.984 51.825,54.862 51.872,57.752 C53.881,57.971 55.822,58.19 57.712,58.397 C58.991,58.538 59.955,58.3 60.589,57.688 C61.229,57.085 61.525,56.144 61.498,54.884 z M67.791,64.251 C68.832,64.739 69.687,65.411 70.377,66.251 C71.052,67.092 71.619,67.987 72.048,68.959 C72.476,69.919 72.797,70.928 72.988,71.983 C73.185,73.019 73.299,74.002 73.332,74.91 C73.399,77.052 73.167,79.035 72.637,80.843 C72.102,82.692 71.321,84.337 70.29,85.766 C69.244,87.227 67.955,88.455 66.426,89.415 C64.851,90.416 63.046,90.999 61.069,91.379 L37.014,96.055 C37.006,85.223 37.001,73.686 36.996,63.278 L36.974,33.081 C41.066,34.178 44.947,35.306 48.614,36.284 C52.091,37.21 55.406,38.109 58.548,38.95 C61,39.608 63.064,40.504 64.786,41.614 C66.449,42.699 67.814,43.951 68.878,45.385 C69.924,46.787 70.718,48.353 71.248,50.053 C71.774,51.751 72.075,53.555 72.139,55.501 C72.162,56.291 72.13,57.132 72.035,57.999 C71.943,58.867 71.732,59.706 71.427,60.497 C71.121,61.292 70.673,62.036 70.093,62.703 C69.504,63.383 68.737,63.903 67.791,64.251" fill="#84D0F4"/>
    <path d="M71.527,91.653 C71.02,90.712 70.564,89.734 70.153,88.731 C68.211,83.949 67.422,78.784 67.39,73.641 C67.343,66.686 67.293,59.726 67.253,52.771 C67.229,49.075 67.709,45.417 68.769,41.9 L122,41.9 L122,54.706 L120.795,55.108 C118.48,55.885 116.165,56.669 113.849,57.451 L110.419,58.606 L109.382,55.136 C109.016,53.911 108.555,52.606 107.93,51.491 C107.56,50.839 107.081,50.103 106.519,49.595 C106.113,49.236 105.642,48.897 105.13,48.691 C104.542,48.459 103.915,48.263 103.285,48.158 C98.357,47.359 96.477,48.495 96.49,53.6 C96.504,57.077 96.522,60.552 96.527,64.027 C96.532,67.498 96.562,70.96 96.562,74.426 C96.567,79.341 98.294,81.637 103.382,81.226 C104.719,81.112 105.862,80.614 106.897,79.76 C108.177,78.709 108.985,76.381 109.401,74.846 L110.455,71 L114.131,72.545 C116.501,73.544 118.876,74.54 121.248,75.531 L122,75.847 L122,91.653 z" fill="#727272"/>
    <path d="M122,91.031 C121.032,92.365 119.946,93.562 118.739,94.621 C116.872,96.256 114.739,97.635 112.346,98.745 C109.884,99.883 107.099,100.754 103.989,101.339 C99.243,102.22 94.882,102.348 90.996,101.618 C86.936,100.864 83.378,99.32 80.424,96.983 C77.355,94.566 75.002,91.37 73.394,87.414 C71.759,83.391 70.92,78.769 70.888,73.618 C70.842,66.686 70.796,59.716 70.751,52.746 C70.723,48.235 71.509,44.011 73.098,40.156 C74.674,36.347 76.939,33.237 79.871,30.843 C82.711,28.528 86.201,27.251 90.119,26.368 C102.742,23.527 115.452,27.36 122,38.192 L122,51.011 L119.685,51.793 C117.447,52.542 115.114,53.336 112.735,54.135 C112.209,52.377 111.62,50.921 110.977,49.774 C110.332,48.632 109.623,47.691 108.861,47.001 C108.107,46.326 107.286,45.786 106.422,45.445 C105.551,45.097 104.687,44.845 103.848,44.709 C96.649,43.536 92.973,46.358 92.992,53.61 C93.005,57.09 93.024,60.57 93.032,64.037 C93.032,67.498 93.064,70.965 93.069,74.43 C93.079,81.268 96.375,85.3 103.664,84.711 C105.697,84.546 107.51,83.78 109.122,82.46 C110.693,81.158 111.908,78.929 112.775,75.769 C115.224,76.797 117.598,77.801 119.899,78.761 L122,79.642 z" fill="#84D0F4"/>
  </g>
  <defs/>
</svg>
